<?xml version="1.0" standalone="no"?>
<!DOCTYPE svg PUBLIC "-//W3C//DTD SVG 20010904//EN"
 "http://www.w3.org/TR/2001/REC-SVG-20010904/DTD/svg10.dtd">
<svg version="1.0" xmlns="http://www.w3.org/2000/svg"
 width="859.000000pt" height="860.000000pt" viewBox="0 0 859.000000 860.000000"
 preserveAspectRatio="xMidYMid meet">

<g transform="translate(0.000000,860.000000) scale(0.100000,-0.100000)"
fill="#000000" stroke="none">
<path d="M0 6463 l0 -2138 308 305 c169 168 454 451 635 630 l327 324 0 878 0
878 893 0 893 0 635 625 634 625 620 -625 620 -626 893 1 892 0 0 -908 0 -907
511 -520 c281 -286 560 -569 620 -630 l109 -110 0 2168 0 2167 -4295 0 -4295
0 0 -2137z"/>
<path d="M4327 8019 c-4 -277 -7 -593 -7 -701 l0 -198 98 0 c289 0 689 -92
990 -229 346 -156 676 -402 920 -685 370 -429 587 -904 673 -1476 27 -175 32
-569 11 -735 -85 -650 -347 -1202 -782 -1649 -217 -223 -451 -397 -711 -529
-355 -180 -786 -287 -1160 -287 l-77 0 -6 -282 c-4 -156 -6 -483 -4 -727 l3
-444 2120 2088 c1166 1149 2120 2094 2120 2100 0 9 -2383 2435 -3995 4069
l-187 189 -6 -504z"/>
<path d="M1320 6468 l0 -832 47 44 c40 39 1213 1191 1538 1512 l110 108 -848
0 -847 0 0 -832z"/>
<path d="M4102 7069 c-908 -82 -1714 -642 -2131 -1480 -488 -979 -372 -2135
299 -3002 100 -128 359 -381 497 -485 347 -259 763 -435 1174 -496 154 -23
181 -18 54 10 -165 36 -235 59 -353 119 -199 102 -365 249 -485 430 -73 111
-95 154 -140 275 -122 328 -125 762 -8 1055 58 143 166 296 278 390 247 210
542 321 1062 400 96 15 213 38 260 51 112 32 311 129 431 209 109 72 277 239
360 357 249 352 286 766 106 1191 -55 132 -121 244 -202 346 -219 272 -613
529 -939 610 -108 26 -154 30 -263 20z"/>
<path d="M4875 7015 c6 -2 63 -20 127 -40 274 -82 538 -200 725 -325 364 -242
683 -579 882 -932 18 -32 35 -58 38 -58 19 0 -174 297 -273 420 -93 116 -269
295 -384 392 -260 219 -614 408 -940 502 -104 30 -201 53 -175 41z"/>
<path d="M0 2163 l0 -2163 2132 0 2132 0 -180 183 c-99 100 -380 386 -625 634
l-445 453 -872 0 -872 0 0 888 -1 887 -634 640 -634 640 -1 -2162z"/>
<path d="M7968 3651 l-617 -606 -1 -887 0 -888 -900 0 -901 0 -641 -632 -641
-633 2158 -3 c1187 -1 2160 -1 2162 1 2 2 2 960 1 2129 l-3 2126 -617 -607z"/>
<path d="M1320 2145 l0 -835 821 0 c466 0 819 4 817 9 -3 9 -1628 1661 -1634
1661 -2 0 -4 -376 -4 -835z"/>
<path d="M4123 1583 c9 -2 25 -2 35 0 9 3 1 5 -18 5 -19 0 -27 -2 -17 -5z"/>
</g>
</svg>
